# xmcd
#
# Track frame offsets:
#	150
#	31649
#	57711
#	92501
#	123410
#	152330
#	187395
#	216993
#	244072
#	280356
#	307998
#	333499
#
# Disc length: 4670 seconds
#
# Revision: 1
# Processed by: cddbd v1.5.2PL0 Copyright (c) Steve Scherf et al.
# Submitted via: EasyCDDAExtractor 6.5.0.1
#
DISCID=ab123c0c
DTITLE=Various Artist - Forever Country
DYEAR=1900
DGENRE=Eurodance
TTITLE0=Rhinestone Cowboy - James Reay
TTITLE1=Stand By Your Man - Klub Kidz
TTITLE2=For Ever and Ever Amen - Jajucha
TTITLE3=Nine To Five - New Emotion
TTITLE4=Islands In The Stream - Laura Harding
TTITLE5=Live Like You Were Dying - Ernest Kohl
TTITLE6=From This Moment On - Klub Kidz
TTITLE7=Rose Garden - Donna Reid
TTITLE8=Wicked Mountain - Midnight Cowboys
TTITLE9=We Shall Be Free - Jajucha
TTITLE10=Jolene - Cowgirls In The Sand
TTITLE11=Johnny Remember Me - Johnny Westwood
EXTD=
EXTT0=
EXTT1=
EXTT2=
EXTT3=
EXTT4=
EXTT5=
EXTT6=
EXTT7=
EXTT8=
EXTT9=
EXTT10=
EXTT11=
PLAYORDER=
